<svg xmlns="http://www.w3.org/2000/svg" xmlns:xlink="http://www.w3.org/1999/xlink" width="55" height="55" viewBox="0 0 55 55">
  <defs>
    <filter id="Ellipse_42" x="0" y="0" width="55" height="55" filterUnits="userSpaceOnUse">
      <feOffset dy="3" input="SourceAlpha"/>
      <feGaussianBlur stdDeviation="3" result="blur"/>
      <feFlood flood-opacity="0.161"/>
      <feComposite operator="in" in2="blur"/>
      <feComposite in="SourceGraphic"/>
    </filter>
  </defs>
  <g id="phone" transform="translate(-1029 -4167)">
    <g transform="matrix(1, 0, 0, 1, 1029, 4167)" filter="url(#Ellipse_42)">
      <circle id="Ellipse_42-2" data-name="Ellipse 42" cx="18.5" cy="18.5" r="18.5" transform="translate(9 6)" fill="#a60d2e"/>
    </g>
    <g id="call" transform="translate(1048 4183)">
      <g id="Group_106" data-name="Group 106">
        <path id="Path_151" data-name="Path 151" d="M15.507,11.066a9.572,9.572,0,0,1-3.006-.479,1.374,1.374,0,0,0-1.336.282L9.268,12.3a10.476,10.476,0,0,1-4.71-4.709L5.947,5.745a1.363,1.363,0,0,0,.335-1.381A9.587,9.587,0,0,1,5.8,1.353,1.354,1.354,0,0,0,4.449,0h-3.1A1.354,1.354,0,0,0,0,1.353,15.524,15.524,0,0,0,15.507,16.859a1.354,1.354,0,0,0,1.353-1.353V12.419A1.354,1.354,0,0,0,15.507,11.066Z" fill="#fff"/>
      </g>
    </g>
  </g>
</svg>
