<svg id="sale" xmlns="http://www.w3.org/2000/svg" width="36.085" height="32.271" viewBox="0 0 36.085 32.271">
  <path id="Path_34" data-name="Path 34" d="M33.689,5.6H32.278V3.079A3.075,3.075,0,0,0,29.209.006L18.5,0h0a2.267,2.267,0,0,0-1.614.668L.9,16.655A3.071,3.071,0,0,0,.9,21L11.274,31.373a3.075,3.075,0,0,0,4.344,0L25.683,21.308a.7.7,0,1,0-1-1L14.621,30.376a1.663,1.663,0,0,1-2.35,0L1.9,20a1.662,1.662,0,0,1,0-2.35L17.882,1.665A.867.867,0,0,1,18.5,1.41h0l10.708.006A1.664,1.664,0,0,1,30.87,3.078l0,5.906H27.692a.984.984,0,0,1-.7-.292,2.6,2.6,0,1,0-1.539.159,2.4,2.4,0,0,0,2.239,1.542h3.174l0,3.379a.865.865,0,0,1-.256.617l-5.922,5.922a.7.7,0,1,0,1,1L31.6,15.386a2.268,2.268,0,0,0,.668-1.613l0-3.379h1.414a2.4,2.4,0,1,0,0-4.793Zm-8.563-.135a1.184,1.184,0,0,1,1.865.24,2.406,2.406,0,0,0-1.6,1.636,1.185,1.185,0,0,1-.261-1.877Zm8.563,3.518H32.276V7.011h1.412a.987.987,0,1,1,0,1.973Zm0,0" fill="#B03536"/>
  <path id="Path_35" data-name="Path 35" d="M161.072,213.957a.7.7,0,0,0,.868.49l7.235-2.014a.7.7,0,1,0-.378-1.358l-7.235,2.014A.705.705,0,0,0,161.072,213.957Zm0,0" transform="translate(-149.695 -196.175)" fill="#B03536"/>
  <path id="Path_36" data-name="Path 36" d="M198.574,257.486a2.078,2.078,0,1,0,2.939,0A2.064,2.064,0,0,0,198.574,257.486Zm1.942,1.942a.668.668,0,1,1,0-.945A.669.669,0,0,1,200.516,259.428Zm0,0" transform="translate(-184.013 -238.774)" fill="#B03536"/>
  <path id="Path_37" data-name="Path 37" d="M206.479,159.173a2.081,2.081,0,1,0-1.47.608A2.081,2.081,0,0,0,206.479,159.173Zm-1.942-1.942a.669.669,0,1,1,0,.945A.664.664,0,0,1,204.537,157.23Zm0,0" transform="translate(-188.63 -144.657)" fill="#B03536"/>
  <path id="Path_38" data-name="Path 38" d="M61.165,75.107a.7.7,0,0,0-1,0L54.179,81.1a.7.7,0,0,0,0,1l8.937,8.937a.705.705,0,0,0,1,0L77.475,77.668a.7.7,0,0,0,0-1l-8.937-8.937a.7.7,0,0,0-1,0l-7.373,7.373a.7.7,0,0,0,1,1l6.875-6.875,7.94,7.94L63.615,89.535l-7.94-7.94L61.165,76.1A.7.7,0,0,0,61.165,75.107Zm0,0" transform="translate(-50.169 -62.768)" fill="#B03536"/>
  <path id="Path_39" data-name="Path 39" d="M376.326,256.973a.7.7,0,1,0,.5.206A.71.71,0,0,0,376.326,256.973Zm0,0" transform="translate(-349.148 -238.862)" fill="#B03536"/>
  <path id="Path_40" data-name="Path 40" d="M111.875,201.625a.7.7,0,1,0-.5.206A.706.706,0,0,0,111.875,201.625Zm0,0" transform="translate(-102.872 -186.296)" fill="#B03536"/>
</svg>
