<svg id="steering-wheel" xmlns="http://www.w3.org/2000/svg" width="35.524" height="35.524" viewBox="0 0 35.524 35.524">
  <g id="Group_33" data-name="Group 33" transform="translate(14.21 15.986)">
    <g id="Group_32" data-name="Group 32">
      <path id="Path_18" data-name="Path 18" d="M195.552,216a3.552,3.552,0,1,0,3.552,3.552A3.556,3.556,0,0,0,195.552,216Zm0,5.921a2.368,2.368,0,1,1,2.368-2.368A2.371,2.371,0,0,1,195.552,221.921Z" transform="translate(-192 -216)" fill="#B03536"/>
    </g>
  </g>
  <g id="Group_35" data-name="Group 35">
    <g id="Group_34" data-name="Group 34">
      <path id="Path_19" data-name="Path 19" d="M17.762,0A17.762,17.762,0,1,0,35.524,17.762,17.782,17.782,0,0,0,17.762,0Zm0,34.34A16.578,16.578,0,1,1,34.34,17.762,16.6,16.6,0,0,1,17.762,34.34Z" fill="#B03536"/>
    </g>
  </g>
  <g id="Group_37" data-name="Group 37" transform="translate(3.552 3.552)">
    <g id="Group_36" data-name="Group 36">
      <path id="Path_20" data-name="Path 20" d="M62.21,48A14.21,14.21,0,1,0,76.42,62.21,14.226,14.226,0,0,0,62.21,48Zm0,1.184a13.045,13.045,0,0,1,12.154,8.35l-4.436,1.479a6.4,6.4,0,0,1-4.633-.224,7.6,7.6,0,0,0-6.17,0l-.224.1a6.429,6.429,0,0,1-4.256.337L49.9,57.959A13.046,13.046,0,0,1,62.21,49.184ZM49.184,62.21c0-.121.006-.24.009-.36l.411.137A15.786,15.786,0,0,1,60.3,75.095,13.045,13.045,0,0,1,49.184,62.21ZM62.21,75.235c-.235,0-.469-.007-.7-.019a16.966,16.966,0,0,0-11.53-14.352l-.7-.232a12.951,12.951,0,0,1,.28-1.537l4.775,1.273a7.615,7.615,0,0,0,5.042-.4l.224-.1a6.418,6.418,0,0,1,5.21,0,7.581,7.581,0,0,0,5.487.264l4.436-1.479a12.926,12.926,0,0,1,.4,1.975l-.7.232A16.966,16.966,0,0,0,62.91,75.216C62.678,75.228,62.445,75.235,62.21,75.235Zm1.905-.141a15.786,15.786,0,0,1,10.7-13.108l.411-.137c0,.12.009.239.009.36A13.045,13.045,0,0,1,64.115,75.095Z" transform="translate(-48 -48)" fill="#B03536"/>
    </g>
  </g>
</svg>
