<svg xmlns="http://www.w3.org/2000/svg" width="24.011" height="37.431" viewBox="0 0 24.011 37.431">
  <g id="leaflet" transform="translate(-15.497 -4.532)">
    <path id="Path_21" data-name="Path 21" d="M15.546,39.3a.731.731,0,0,0,.057.111.751.751,0,0,0,.086.127.731.731,0,0,0,.088.076.7.7,0,0,0,.135.09.81.81,0,0,0,.11.036.684.684,0,0,0,.119.039l18.916,2.182a.827.827,0,0,0,.084,0h0a.719.719,0,0,0,.271-.055.731.731,0,0,0,.086-.052.687.687,0,0,0,.138-.093.708.708,0,0,0,.071-.089.657.657,0,0,0,.086-.128.757.757,0,0,0,.036-.117.654.654,0,0,0,.034-.109c0-.015,0-.027,0-.041s.009-.027.009-.042V39.777H38.78a.727.727,0,0,0,.727-.727V5.259a.727.727,0,0,0-.727-.727H16.224a.723.723,0,0,0-.1.02.715.715,0,0,0-.143.029.735.735,0,0,0-.128.066.665.665,0,0,0-.106.072.681.681,0,0,0-.1.115.726.726,0,0,0-.071.1.733.733,0,0,0-.047.145.786.786,0,0,0-.031.094c0,.015,0,.028,0,.041s-.008.027-.008.041v33.79a.765.765,0,0,0,.02.1.745.745,0,0,0,.03.146Zm18.866,1.122L16.952,38.4V6.075L34.413,8.091ZM35.847,7.341a.743.743,0,0,0-.028-.14.67.67,0,0,0-.064-.124.8.8,0,0,0-.076-.112.739.739,0,0,0-.106-.091.721.721,0,0,0-.112-.076.766.766,0,0,0-.14-.046.735.735,0,0,0-.1-.032l-6.357-.734h9.186V38.322H35.868V7.443a.7.7,0,0,0-.02-.1Z" fill="#fff"/>
    <path id="Path_22" data-name="Path 22" d="M32.865,32H21.225a.727.727,0,1,0,0,1.455H32.865a.727.727,0,0,0,0-1.455Z" transform="translate(-1.363 -10.722)" fill="#fff"/>
    <path id="Path_24" data-name="Path 24" d="M32.865,38H21.225a.727.727,0,1,0,0,1.455H32.865a.727.727,0,0,0,0-1.455Z" transform="translate(-1.363 -13.357)" fill="#fff"/>
    <path id="Path_25" data-name="Path 25" d="M31.5,41h-7.27a.727.727,0,1,0,0,1.455H31.5A.727.727,0,1,0,31.5,41Z" transform="translate(-2.181 -13.174)" fill="#fff"/>
    <path id="Path_26" data-name="Path 26" d="M25.255,48h-.008a.731.731,0,1,0,.008,0Z" transform="translate(-2.46 -13.082)" fill="#fff"/>
    <path id="Path_27" data-name="Path 27" d="M29.255,48h-.008a.731.731,0,1,0,.008,0Z" transform="translate(-3.55 -13.082)" fill="#fff"/>
    <path id="Path_28" data-name="Path 28" d="M33.255,48h-.008a.731.731,0,1,0,.008,0Z" transform="translate(-4.64 -13.082)" fill="#fff"/>
    <path id="Path_30" data-name="Path 30" d="M22.315,17.635A1.818,1.818,0,1,0,20.5,15.817,1.82,1.82,0,0,0,22.315,17.635Zm0-2.18a.362.362,0,1,1-.362.362.363.363,0,0,1,.362-.362Z" transform="translate(-1.363 0.185)" fill="#fff"/>
  </g>
</svg>
