<svg xmlns="http://www.w3.org/2000/svg" width="58.997" height="24.218" viewBox="0 0 58.997 24.218">
  <g id="surface1" transform="translate(0.5 0.008)">
    <path id="Path_17" data-name="Path 17" d="M57.168,6.3,50.6,5.364a33.13,33.13,0,0,0-3.721-1.972A32.551,32.551,0,0,0,33.414.492H32.273a32.857,32.857,0,0,0-15.689,4L13.271,6.3a22.84,22.84,0,0,0-11.053,3A4.413,4.413,0,0,0,0,13.118v5.74a.967.967,0,0,0,.967.967H4.212a5.778,5.778,0,0,0,10.906,0H40.944a5.778,5.778,0,0,0,10.906,0H52.2a.97.97,0,0,0,.359-.069L55.688,18.5A3.655,3.655,0,0,0,58,15.088V7.258A.967.967,0,0,0,57.168,6.3ZM13.454,18.665a3.867,3.867,0,1,1,.078-.773A3.866,3.866,0,0,1,13.454,18.665Zm17.478-.773H15.466a5.8,5.8,0,1,0-11.6,0H1.933V13.118a2.473,2.473,0,0,1,1.244-2.143,20.9,20.9,0,0,1,10.355-2.75h17.4Zm0-11.6H17.324l.186-.1A30.907,30.907,0,0,1,30.932,2.468Zm1.933-3.867h.547A30.593,30.593,0,0,1,44.786,4.6L43.1,6.292H32.865ZM50.186,18.665a3.867,3.867,0,1,1,.078-.773A3.867,3.867,0,0,1,50.186,18.665Zm5.878-9.473h-2.9v1.934h2.9v3.963A1.73,1.73,0,0,1,54.97,16.7L52.2,17.817c0-.089-.011-.177-.017-.266s-.008-.193-.017-.29-.029-.194-.044-.29-.027-.194-.046-.281-.048-.186-.073-.278-.044-.184-.074-.275-.064-.176-.1-.264-.063-.179-.1-.266-.079-.166-.12-.248-.08-.172-.125-.255-.1-.154-.14-.231-.1-.166-.151-.245-.107-.142-.16-.214-.113-.156-.175-.23-.12-.133-.18-.194-.127-.143-.193-.21-.133-.121-.2-.181-.138-.131-.212-.194-.148-.111-.221-.166-.147-.114-.224-.166-.164-.1-.247-.151-.151-.1-.229-.138-.176-.085-.265-.128-.159-.08-.241-.115-.194-.072-.29-.106-.16-.062-.242-.088c-.11-.034-.223-.058-.336-.086-.074-.017-.144-.041-.218-.056-.119-.024-.241-.038-.361-.055-.072-.009-.14-.025-.212-.032a5.892,5.892,0,0,0-.59-.03,5.805,5.805,0,0,0-5.8,5.8H32.865V8.225H43.5a.965.965,0,0,0,.683-.283l2.507-2.507a31,31,0,0,1,3.064,1.676.97.97,0,0,0,.375.137l5.937.848Zm0,0" transform="translate(0 0)" fill="#fff" stroke="#b03536" stroke-width="1"/>
  </g>
</svg>
