<svg id="instagram" xmlns="http://www.w3.org/2000/svg" width="24.069" height="24.074" viewBox="0 0 24.069 24.074">
  <path id="Path_7" data-name="Path 7" d="M1.5,1.633C-.386,3.592,0,5.673,0,12c0,5.25-.916,10.513,3.878,11.752,1.5.385,14.761.385,16.256,0a5.155,5.155,0,0,0,3.842-4.957c.031-.394.031-13.185,0-13.587A5.163,5.163,0,0,0,19.449.11,21.591,21.591,0,0,0,15.91,0C5.737.005,3.507-.448,1.5,1.633Z" transform="translate(0.07 0.038)" fill="#fff"/>
  <path id="Path_8" data-name="Path 8" d="M12,3.139c-3.631,0-7.079-.323-8.4,3.057-.544,1.4-.465,3.209-.465,5.8,0,2.278-.073,4.419.465,5.8,1.314,3.382,4.79,3.058,8.394,3.058,3.477,0,7.062.362,8.4-3.058.545-1.41.465-3.2.465-5.8,0-3.462.191-5.7-1.488-7.375-1.7-1.7-4-1.487-7.374-1.487Zm-.794,1.6c7.574-.012,8.538-.854,8.006,10.843-.189,4.137-3.339,3.683-7.211,3.683-7.06,0-7.263-.2-7.263-7.265,0-7.145.56-7.257,6.468-7.263Zm5.524,1.471A1.063,1.063,0,1,0,17.791,7.27,1.063,1.063,0,0,0,16.728,6.207ZM12,7.45A4.55,4.55,0,1,0,16.547,12,4.551,4.551,0,0,0,12,7.45Zm0,1.6c3.9,0,3.91,5.908,0,5.908S8.088,9.047,12,9.047Z" transform="translate(0.07 0.038)"/>
</svg>
