<svg xmlns="http://www.w3.org/2000/svg" width="27.472" height="18.887" viewBox="0 0 27.472 18.887">
  <g id="youtube" transform="translate(0 -80)">
    <path id="Path_10" data-name="Path 10" d="M26.3,81.82c-.745-1.326-1.554-1.569-3.2-1.662C21.459,80.046,17.323,80,13.74,80s-7.728.046-9.371.156c-1.643.094-2.454.337-3.206,1.664C.395,83.144,0,85.424,0,89.438v.014c0,4,.395,6.295,1.162,7.6.752,1.326,1.561,1.566,3.2,1.678,1.645.1,5.783.153,9.373.153s7.72-.057,9.366-.151c1.647-.112,2.455-.352,3.2-1.678.774-1.31,1.166-3.607,1.166-7.6V89.44C27.472,85.424,27.081,83.144,26.3,81.82Z" fill="#fff"/>
    <path id="Path_11" data-name="Path 11" d="M192,170.3V160l8.585,5.151Z" transform="translate(-181.698 -75.707)"/>
  </g>
</svg>
