<svg xmlns="http://www.w3.org/2000/svg" width="29.996" height="29.198" viewBox="0 0 29.996 29.198">
  <g id="question" transform="translate(0 -6.786)">
    <path id="Path_31" data-name="Path 31" d="M29.673,18.632l-4.06-3.35V11.727a.882.882,0,0,0-.882-.882h-4.5L15.56,6.988a.883.883,0,0,0-1.123,0L9.761,10.845h-4.5a.882.882,0,0,0-.882.882v3.555l-4.06,3.35,0,0A.89.89,0,0,0,0,19.316V35.1a.882.882,0,0,0,.882.882H29.114A.881.881,0,0,0,30,35.1V19.316a.91.91,0,0,0-.323-.684ZM28.232,33.057l-7.55-7.124,7.55-4.979ZM2.364,19.236,4.383,17.57v3ZM6.147,12.61h17.7v9.121L15,27.568,6.147,21.731V12.61ZM15,8.813l2.464,2.033H12.534ZM27.632,19.236l-2.019,1.331v-3ZM1.764,20.954l7.55,4.979-7.55,7.124Zm9.062,5.977,3.685,2.43a.885.885,0,0,0,.972,0l3.685-2.43,7.724,7.289H3.1Z" fill="#fff"/>
    <path id="Path_32" data-name="Path 32" d="M212.2,145.571a.883.883,0,0,0,.882-.882.8.8,0,0,1,.825-.8.813.813,0,0,1,.785.785c.013.536-.352.609-.8,1.137a3.705,3.705,0,0,0-.889,2.428.882.882,0,1,0,1.764-.028,1.983,1.983,0,0,1,.745-1.53,2.569,2.569,0,1,0-4.2-1.988A.883.883,0,0,0,212.2,145.571Z" transform="translate(-198.891 -127.374)" fill="#fff"/>
    <path id="Path_33" data-name="Path 33" d="M240.882,268.434a.882.882,0,0,0-.882.882v.516a.882.882,0,1,0,1.764,0v-.516A.882.882,0,0,0,240.882,268.434Z" transform="translate(-225.884 -246.259)" fill="#fff"/>
  </g>
</svg>
